<svg width="633" height="180" viewBox="0 0 633 180" fill="none" xmlns="http://www.w3.org/2000/svg">
<g opacity="0.28">
<path d="M22.9863 128.654C51.2096 154.363 86.5983 166.872 124.686 167.925C172.606 169.247 218.643 152.418 259.974 129.323C301.413 106.166 338.793 76.6434 378.495 50.7727C411.446 29.2996 445.39 12.0858 482.839 0C445.482 5.75844 411.177 17.529 377.611 34.9735C337.163 55.9929 299.791 82.2634 260.62 105.466C220.995 128.938 177.803 149.297 131.42 153.725C92.6334 157.423 55.7918 149.65 22.9863 128.654Z" fill="#6BB5B5"/>
<path d="M0 57.8467C15.0227 77.2132 32.8053 92.9048 55.6777 102.415C85.1772 114.685 117.306 115.377 148.013 107.312C195.572 94.8191 240.017 66.2114 280.534 39.0645C237.095 52.6418 195.841 72.6157 152.103 85.1397C123.457 93.343 94.1493 96.6412 64.8266 90.0294C40.532 84.5554 19.6587 72.754 0 57.8467Z" fill="#6BB5B5"/>
<path d="M232.928 180.001C250.403 179.186 267.163 177.602 283.977 172.436C306.457 165.532 327.823 155.022 347.896 142.852C390.55 116.981 428.453 83.8065 472.614 60.3652C494.233 48.8868 517.275 39.7609 541.692 36.5703C562.366 33.8718 587.867 36.4473 602.806 52.6771C616.836 67.9227 619.166 91.6868 608.51 109.423C597.701 128.321 570.954 136.586 550.895 129.52C535.603 124.131 522.779 108.847 527.731 91.9174C532.221 76.5488 550.657 71.0364 562.896 81.2002C549.919 67.1385 528.123 74.6345 522.134 91.5638C515.137 111.353 528.915 130.658 546.382 138.884C567.279 148.725 592.719 143.79 610.463 129.843C628.077 116.005 635.457 92.0789 631.352 70.4213C621.672 19.3104 566.21 10.3383 523.187 19.3642C475.712 29.3204 435.034 59.3965 397.854 88.996C370.208 111 342.976 133.864 312.339 151.67C286.975 166.393 261.651 174.934 232.928 180.001Z" fill="#6BB5B5"/>
</g>
</svg>
