<svg width="245" height="56" viewBox="0 0 245 56" fill="none" xmlns="http://www.w3.org/2000/svg">
<g opacity="0.28">
<path d="M95.5021 18.0529C122.993 22.5827 149.885 29.5256 179.016 29.287C193.13 29.1717 207.277 26.858 219.269 22.5635C230.483 18.5493 238.182 12.7017 241.785 5.42578C237.264 10.3479 231.498 14.4246 223.34 17.5117C214.298 20.9335 203.565 22.9622 192.883 23.7869C177.312 24.9894 161.338 23.4858 146.285 21.14C130.936 18.7478 115.869 15.8128 100.485 13.4959C85.5592 11.2478 69.9023 10.0292 54.4874 10.9307C41.2941 11.5936 29.288 14.2661 18.6777 18.7703C29.8441 15.7472 41.4248 14.2228 53.7923 14.1988C67.9365 14.1748 81.9556 15.8208 95.5021 18.0529Z" fill="#6BB5B5"/>
<path d="M76.0236 27.7269C86.1306 29.027 95.8094 30.6699 105.563 32.6874C118.053 35.2718 130.318 38.2244 143.208 40.1074C165.777 43.4043 191.624 43.0008 209.175 33.1918C200.906 36.0515 192.297 37.7697 182.646 38.2212C171.647 38.7352 160.647 37.7312 150.051 36.0708C124.023 31.9925 100.255 23.4324 72.9122 22.2187C57.9338 21.5542 43.4671 22.8256 29.434 25.8855C18.3372 28.3145 8.76404 32.1126 0 36.668C4.39592 35.315 8.6389 33.8579 13.2044 32.697C20.5393 30.83 27.9382 29.4818 35.704 28.3417C42.9972 27.2705 51.0272 26.8478 58.5428 26.9246C64.2122 26.9823 70.8269 27.0992 76.0236 27.7269Z" fill="#6BB5B5"/>
<path d="M216.718 45.9713C202.015 49.2346 186.719 50.6612 170.993 50.4627C157.869 49.9887 145.226 48.3235 132.695 46.0241C117.942 43.3165 103.033 40.4007 87.6233 39.227C80.3691 38.6746 73.1287 38.5657 65.855 38.9852C59.7185 39.3391 54.0519 40.3302 48.3047 41.5728C54.4857 41.1388 60.4136 40.8666 66.6474 41.0332C73.9073 41.2253 81.0864 42.0708 88.1099 43.1148C103.016 45.1147 117.005 48.9448 131.546 51.6108C145.841 54.232 160.202 56.2495 175.319 55.9756C203.763 55.4601 230.695 47.928 248.726 35.2832C238.767 39.5889 228.39 43.3806 216.718 45.9713Z" fill="#6BB5B5"/>
<path d="M101.267 4.51237C114.95 6.11998 127.92 9.31918 141.297 11.5561C154.443 13.7529 168.168 15.2581 181.839 13.9162C193.487 12.773 204.141 9.68108 211.182 4.12648C201.773 7.88292 191.374 9.66026 179.907 9.77235C166.102 9.90845 152.739 7.6219 139.674 5.30334C126.819 3.02162 114.007 0.730301 100.527 0.121842C88.5073 -0.420968 77.0546 0.832771 66.5527 4.22734C71.388 3.72135 76.1315 3.20575 81.0696 3.20415C87.9318 3.20095 94.552 3.72457 101.267 4.51237Z" fill="#6BB5B5"/>
</g>
</svg>
