<svg width="66" height="74" viewBox="0 0 66 74" fill="none" xmlns="http://www.w3.org/2000/svg">
<path d="M28.5785 31.418C31.7285 31.4207 31.4388 35.7053 31.4378 37.4192C31.4356 39.6065 31.9725 44.0215 30.2854 45.702C28.5655 47.4144 25.1285 48.2689 23.4113 46.8393C21.6941 45.4096 24.569 31.4147 28.5785 31.418ZM36.6238 31.4244C33.4737 31.4217 33.7564 35.7069 33.7548 37.4209C33.7532 39.6087 33.2088 44.0225 34.8937 45.7058C36.6103 47.4214 40.0463 48.2808 41.7657 46.8544C43.485 45.4279 40.6332 31.4277 36.6238 31.4244Z" fill="#008080"/>
<path fill-rule="evenodd" clip-rule="evenodd" d="M32.0659 28.1914H33.1428L33.1364 35.996C33.1353 37.1274 32.6307 37.7757 32.06 38.1084C31.7354 38.2957 31.3703 38.4014 30.9959 38.4165H30.9819V37.3395H30.9766H30.9793C30.9843 37.3395 30.9934 37.3388 31.0067 37.3374C31.1869 37.322 31.3615 37.2674 31.5183 37.1774C31.7552 37.0401 32.0584 36.7472 32.0594 35.9949L32.0659 28.1914Z" fill="#008080"/>
<path fill-rule="evenodd" clip-rule="evenodd" d="M33.142 28.1914H32.0651L32.0586 35.9949C32.0575 37.1263 32.5605 37.7757 33.1307 38.1095C33.455 38.2971 33.8199 38.4031 34.1942 38.4186H34.2093L34.2103 37.8801C34.2103 37.3417 34.2114 37.3417 34.2114 37.3417H34.2163H34.2136L34.1861 37.34C34.0061 37.3245 33.8317 37.2697 33.6751 37.1796C33.4382 37.0412 33.135 36.7483 33.1361 35.996L33.142 28.1914Z" fill="#008080"/>
<path d="M32.5952 16.8182V26.9091L48.8929 13.4545L32.5952 0V10.0909C23.9504 10.0909 15.6597 12.926 9.54692 17.9724C3.43413 23.0188 0 29.8633 0 37C0 42.2809 1.87423 47.1918 5.05226 51.3291L11.0009 46.4182C9.12039 43.5221 8.14037 40.2859 8.14881 37C8.14881 31.6474 10.7244 26.5141 15.309 22.7293C19.8936 18.9445 26.1116 16.8182 32.5952 16.8182ZM60.1382 22.6709L54.1896 27.5818C55.9823 30.4073 57.0417 33.6364 57.0417 37C57.0417 42.3526 54.4661 47.4859 49.8815 51.2707C45.2969 55.0555 39.0788 57.1818 32.5952 57.1818V47.0909L16.2976 60.5455L32.5952 74V63.9091C41.24 63.9091 49.5308 61.074 55.6436 56.0276C61.7563 50.9812 65.1905 44.1367 65.1905 37C65.1905 31.7191 63.3162 26.8082 60.1382 22.6709Z" fill="#008080"/>
</svg>
