<svg width="205" height="46" viewBox="0 0 205 46" fill="none" xmlns="http://www.w3.org/2000/svg">
<g opacity="0.28">
<path d="M78.4476 14.8303C101.029 18.5512 123.12 24.2543 147.049 24.0583C158.642 23.9636 170.263 22.063 180.113 18.5355C189.325 15.2381 195.649 10.4346 198.609 4.45801C194.895 8.50118 190.158 11.8499 183.457 14.3858C176.03 17.1965 167.214 18.863 158.439 19.5403C145.649 20.5281 132.527 19.2931 120.162 17.3662C107.554 15.4011 95.1776 12.9902 82.5405 11.087C70.2802 9.24038 57.4192 8.23942 44.7569 8.97993C33.9195 9.52445 24.0574 11.7197 15.3418 15.4196C24.5142 12.9363 34.0269 11.6842 44.1859 11.6644C55.8044 11.6447 67.3201 12.9968 78.4476 14.8303Z" fill="#6BB5B5"/>
<path d="M62.448 22.7751C70.7502 23.8431 78.7007 25.1926 86.7128 26.8498C96.9724 28.9727 107.047 31.3981 117.635 32.9448C136.174 35.653 157.406 35.3215 171.822 27.2641C165.03 29.6132 157.959 31.0245 150.031 31.3955C140.996 31.8177 131.96 30.993 123.256 29.629C101.876 26.279 82.3527 19.2475 59.8923 18.2505C47.5886 17.7047 35.7051 18.749 24.178 21.2625C15.0627 23.2578 7.19904 26.3777 0 30.1196C3.61094 29.0082 7.09625 27.8113 10.8465 26.8577C16.8716 25.3241 22.9492 24.2166 29.3283 23.2802C35.3192 22.4002 41.9152 22.053 48.0888 22.1161C52.7457 22.1635 58.1793 22.2595 62.448 22.7751Z" fill="#6BB5B5"/>
<path d="M178.019 37.7619C165.942 40.4425 153.377 41.6144 140.459 41.4513C129.679 41.062 119.294 39.6941 109 37.8053C96.8815 35.5812 84.6349 33.1861 71.9772 32.222C66.0183 31.7682 60.0709 31.6788 54.096 32.0234C49.0553 32.314 44.4006 33.1282 39.6797 34.1489C44.7569 33.7924 49.6263 33.5688 54.747 33.7056C60.7104 33.8634 66.6076 34.5579 72.3768 35.4155C84.6211 37.0583 96.1118 40.2044 108.057 42.3944C119.799 44.5475 131.595 46.2047 144.013 45.9798C167.378 45.5563 189.501 39.3692 204.312 28.9824C196.131 32.5192 187.607 35.6338 178.019 37.7619Z" fill="#6BB5B5"/>
<path d="M83.1832 3.70659C94.4225 5.02713 105.077 7.65505 116.065 9.49249C126.864 11.2971 138.138 12.5334 149.368 11.4312C158.935 10.4921 167.687 7.95232 173.47 3.38961C165.741 6.47526 157.199 7.93522 147.78 8.02729C136.441 8.13909 125.464 6.26085 114.732 4.35632C104.173 2.48205 93.6483 0.599891 82.5757 0.100084C72.7021 -0.345796 63.2945 0.684063 54.668 3.47246C58.6398 3.05683 62.5362 2.6333 66.5925 2.63198C72.2294 2.62935 77.6674 3.05947 83.1832 3.70659Z" fill="#6BB5B5"/>
</g>
</svg>
