<svg width="296" height="84" viewBox="0 0 296 84" fill="none" xmlns="http://www.w3.org/2000/svg">
<path d="M10.7266 60.0385C23.8974 72.0361 40.4122 77.8735 58.1862 78.365C80.549 78.9821 102.033 71.1284 121.321 60.3506C140.659 49.5441 158.103 35.7669 176.631 23.6939C192.008 13.6732 207.848 5.64004 225.324 0C207.891 2.68727 191.882 8.18021 176.218 16.321C157.342 26.13 139.902 38.3896 121.622 49.2176C103.131 60.1712 82.9743 69.6717 61.329 71.7383C43.2285 73.4641 26.0358 69.8368 10.7266 60.0385Z" fill="#6BB5B5"/>
<path d="M0 26.9955C7.01059 36.0332 15.3092 43.3559 25.9829 47.7941C39.7493 53.5202 54.7428 53.8431 69.0726 50.0795C91.2668 44.2493 112.008 30.899 130.916 18.2305C110.645 24.5665 91.3923 33.8877 70.9812 39.7322C57.613 43.5604 43.9363 45.0996 30.2524 42.0141C18.9149 39.4596 9.17404 33.9523 0 26.9955Z" fill="#6BB5B5"/>
<path d="M108.699 84C116.854 83.6197 124.676 82.8806 132.522 80.4696C143.013 77.2477 152.984 72.3432 162.351 66.6637C182.256 54.5907 199.944 39.1093 220.553 28.17C230.642 22.8134 241.394 18.5547 252.789 17.0658C262.437 15.8064 274.338 17.0084 281.309 24.5822C287.857 31.6969 288.944 42.7868 283.971 51.0639C278.927 59.8827 266.445 63.7396 257.084 60.4424C249.948 57.9274 243.963 50.7948 246.274 42.8944C248.369 35.7224 256.973 33.1499 262.684 37.893C256.628 31.3309 246.457 34.829 243.662 42.7294C240.397 51.9644 246.826 60.9734 254.978 64.8124C264.73 69.4048 276.602 67.1014 284.882 60.5931C293.102 54.1351 296.546 42.9698 294.63 32.8629C290.113 9.01112 264.231 4.82415 244.154 9.03624C221.999 13.6825 203.016 27.718 185.665 41.5311C172.763 51.7994 160.055 62.4695 145.758 70.7789C133.921 77.6496 122.103 81.6356 108.699 84Z" fill="#6BB5B5"/>
</svg>
